<?xml version="1.0" encoding="UTF-8"?>
<svg xmlns="http://www.w3.org/2000/svg" xmlns:xlink="http://www.w3.org/1999/xlink" width="150px" height="127px" viewBox="0 0 150 127" version="1.1">
<g id="surface1">
<path style="fill:none;stroke-width:2;stroke-linecap:butt;stroke-linejoin:miter;stroke:rgb(40.392157%,41.568628%,41.176471%);stroke-opacity:1;stroke-miterlimit:4;" d="M -0.00527095 257.089068 L 500.005271 257.089068 " transform="matrix(0.299681,0,0,0.299917,0.0797046,0)"/>
<path style=" stroke:none;fill-rule:nonzero;fill:rgb(40.392157%,41.568628%,41.176471%);fill-opacity:1;" d="M 7.050781 102.179688 C 3.761719 102.179688 1.476562 100.066406 1.476562 96.546875 L 1.476562 87.664062 L 3.449219 87.664062 L 3.449219 96.546875 C 3.449219 99.304688 5.171875 100.34375 7.050781 100.34375 C 8.90625 100.34375 10.703125 99.285156 10.703125 96.546875 L 10.703125 87.664062 L 12.640625 87.664062 L 12.640625 96.546875 C 12.640625 99.953125 10.234375 102.179688 7.050781 102.179688 M 27.707031 101.945312 L 27.707031 87.664062 L 25.757812 87.664062 L 25.757812 97.757812 C 25.757812 97.933594 25.792969 98.230469 25.792969 98.230469 C 25.792969 98.230469 25.65625 97.976562 25.539062 97.816406 L 18.148438 87.664062 L 16.492188 87.664062 L 16.492188 101.945312 L 18.445312 101.945312 L 18.445312 91.679688 C 18.445312 91.519531 18.40625 91.207031 18.40625 91.207031 C 18.40625 91.207031 18.582031 91.480469 18.660156 91.59375 L 26.144531 101.945312 Z M 31.65625 101.945312 L 33.609375 101.945312 L 33.609375 87.664062 L 31.65625 87.664062 Z M 47.824219 87.664062 L 45.964844 87.664062 L 42.332031 97.976562 C 42.273438 98.152344 42.210938 98.464844 42.210938 98.464844 C 42.210938 98.464844 42.15625 98.152344 42.09375 97.976562 L 38.476562 87.664062 L 36.582031 87.664062 L 41.609375 101.945312 L 42.816406 101.945312 Z M 59.136719 101.945312 L 59.136719 100.105469 L 52.746094 100.105469 L 52.746094 95.902344 L 58.628906 95.902344 L 58.628906 94.0625 L 52.746094 94.0625 L 52.746094 89.503906 L 58.769531 89.503906 L 58.769531 87.664062 L 50.792969 87.664062 L 50.792969 101.945312 Z M 72.839844 101.945312 L 67.582031 95.960938 C 69.710938 95.960938 71.648438 94.160156 71.648438 91.871094 C 71.648438 89.566406 69.886719 87.664062 67.230469 87.664062 L 62.621094 87.664062 L 62.621094 101.945312 L 64.574219 101.945312 L 64.574219 95.273438 L 70.339844 101.945312 Z M 66.878906 89.503906 C 68.738281 89.503906 69.617188 90.816406 69.617188 91.796875 C 69.617188 93.320312 68.601562 94.417969 66.839844 94.417969 L 64.574219 94.417969 L 64.574219 89.503906 L 66.878906 89.503906 M 79.15625 102.179688 C 81.535156 102.179688 83.53125 100.734375 83.53125 98.171875 C 83.53125 95.78125 81.8125 94.746094 80.1875 93.945312 C 78.433594 93.066406 77.066406 92.539062 77.066406 90.992188 C 77.066406 89.917969 78 89.351562 79.113281 89.351562 C 80.308594 89.351562 81.050781 89.605469 81.929688 90.25 L 82.984375 88.644531 C 81.871094 87.863281 80.5625 87.429688 79.132812 87.429688 C 76.574219 87.429688 75.011719 88.996094 75.011719 91.109375 C 75.011719 93.824219 77.082031 94.726562 79.113281 95.765625 C 80.386719 96.414062 81.5 97.074219 81.5 98.289062 C 81.5 99.640625 80.5 100.285156 79.058594 100.285156 C 78.078125 100.285156 76.851562 99.910156 76.085938 99.226562 L 74.972656 100.734375 C 76.28125 101.8125 77.710938 102.179688 79.15625 102.179688 M 86.742188 101.945312 L 88.691406 101.945312 L 88.691406 87.664062 L 86.742188 87.664062 Z M 99.8125 89.503906 L 99.8125 87.664062 L 91.921875 87.664062 L 91.921875 89.503906 L 94.832031 89.503906 L 94.832031 101.945312 L 96.785156 101.945312 L 96.785156 89.503906 Z M 111.386719 101.945312 L 111.386719 100.105469 L 104.996094 100.105469 L 104.996094 95.902344 L 110.878906 95.902344 L 110.878906 94.0625 L 104.996094 94.0625 L 104.996094 89.503906 L 111.015625 89.503906 L 111.015625 87.664062 L 103.039062 87.664062 L 103.039062 101.945312 Z M 109.472656 83.65625 L 107.59375 83.65625 L 105.777344 86.53125 L 107.65625 86.53125 Z M 126.222656 101.945312 C 131.113281 101.945312 134.019531 98.742188 134.019531 94.765625 C 134.019531 90.871094 131.265625 87.664062 126.398438 87.664062 L 122.761719 87.664062 L 122.761719 101.945312 L 126.222656 101.945312 M 126.359375 89.425781 C 129.78125 89.425781 131.988281 91.871094 131.988281 94.785156 C 131.988281 97.445312 130.207031 100.1875 125.988281 100.1875 L 124.714844 100.1875 L 124.714844 89.425781 L 126.359375 89.425781 M 142.855469 102.179688 C 146.042969 102.179688 148.449219 99.953125 148.449219 96.546875 L 148.449219 87.664062 L 146.511719 87.664062 L 146.511719 96.546875 C 146.511719 99.285156 144.714844 100.34375 142.855469 100.34375 C 140.980469 100.34375 139.257812 99.304688 139.257812 96.546875 L 139.257812 87.664062 L 137.289062 87.664062 L 137.289062 96.546875 C 137.289062 100.066406 139.574219 102.179688 142.855469 102.179688 M 8.914062 126.765625 L 8.914062 124.929688 L 3.5 124.929688 L 3.5 112.484375 L 1.546875 112.484375 L 1.546875 126.765625 Z M 18.179688 127 C 21.363281 127 23.769531 124.769531 23.769531 121.367188 L 23.769531 112.484375 L 21.832031 112.484375 L 21.832031 121.367188 C 21.832031 124.105469 20.035156 125.160156 18.179688 125.160156 C 16.300781 125.160156 14.582031 124.125 14.582031 121.367188 L 14.582031 112.484375 L 12.609375 112.484375 L 12.609375 121.367188 C 12.609375 124.890625 14.894531 127 18.179688 127 M 39.796875 126.765625 L 34.832031 119.136719 L 39.191406 112.484375 L 36.941406 112.484375 L 34.1875 116.671875 C 33.933594 117.046875 33.71875 117.457031 33.71875 117.457031 C 33.71875 117.457031 33.484375 117.046875 33.265625 116.714844 L 30.53125 112.484375 L 28.128906 112.484375 L 32.503906 119.234375 L 27.558594 126.765625 L 29.828125 126.765625 L 32.992188 121.933594 C 33.265625 121.519531 33.636719 120.898438 33.636719 120.898438 C 33.636719 120.898438 34.011719 121.542969 34.246094 121.894531 L 37.429688 126.765625 Z M 51.992188 126.765625 L 51.992188 124.929688 L 45.601562 124.929688 L 45.601562 120.71875 L 51.484375 120.71875 L 51.484375 118.882812 L 45.601562 118.882812 L 45.601562 114.324219 L 51.625 114.324219 L 51.625 112.484375 L 43.644531 112.484375 L 43.644531 126.765625 Z M 70.933594 126.765625 L 70.933594 112.484375 L 69.195312 112.484375 L 63.976562 119.46875 L 58.601562 112.484375 L 56.9375 112.484375 L 56.9375 126.765625 L 58.894531 126.765625 L 58.894531 116.417969 C 58.894531 116.160156 58.855469 115.890625 58.855469 115.890625 C 58.855469 115.890625 58.96875 116.105469 59.050781 116.203125 L 63.566406 122.09375 L 64.347656 122.09375 L 68.824219 116.042969 C 68.90625 115.945312 69.019531 115.710938 69.019531 115.710938 C 69.019531 115.710938 68.980469 116.003906 68.980469 116.261719 L 68.980469 126.765625 Z M 80.628906 126.765625 C 83.777344 126.765625 85.027344 124.671875 85.027344 122.894531 C 85.027344 121.132812 83.734375 119.820312 82.625 119.492188 C 83.546875 118.902344 84.265625 117.84375 84.265625 116.203125 C 84.265625 113.972656 82.546875 112.484375 80.121094 112.484375 L 76.347656 112.484375 L 76.347656 126.765625 L 80.628906 126.765625 M 79.789062 114.324219 C 81.390625 114.324219 82.234375 115.085938 82.234375 116.363281 C 82.234375 117.550781 81.742188 118.84375 79.613281 118.84375 L 78.304688 118.84375 L 78.304688 114.324219 L 79.789062 114.324219 M 80.609375 120.679688 C 82.054688 120.679688 82.996094 121.503906 82.996094 122.734375 C 82.996094 124.066406 82.175781 124.929688 80.414062 124.929688 L 78.304688 124.929688 L 78.304688 120.679688 L 80.609375 120.679688 M 95.640625 127 C 99.667969 127 102.933594 123.773438 102.933594 119.625 C 102.933594 115.480469 99.964844 112.25 95.542969 112.25 C 91.417969 112.25 88.3125 115.417969 88.3125 119.585938 C 88.3125 123.890625 91.558594 127 95.640625 127 M 95.566406 114.167969 C 98.707031 114.167969 100.898438 116.453125 100.898438 119.546875 C 100.898438 122.96875 98.4375 125.085938 95.640625 125.085938 C 92.828125 125.085938 90.347656 122.757812 90.347656 119.585938 C 90.347656 116.453125 92.476562 114.167969 95.566406 114.167969 M 112.351562 127 C 115.539062 127 117.945312 124.769531 117.945312 121.367188 L 117.945312 112.484375 L 116.007812 112.484375 L 116.007812 121.367188 C 116.007812 124.105469 114.210938 125.160156 112.351562 125.160156 C 110.476562 125.160156 108.753906 124.125 108.753906 121.367188 L 108.753906 112.484375 L 106.785156 112.484375 L 106.785156 121.367188 C 106.785156 124.890625 109.066406 127 112.351562 127 M 132.605469 126.765625 L 127.347656 120.78125 C 129.476562 120.78125 131.410156 118.980469 131.410156 116.691406 C 131.410156 114.386719 129.652344 112.484375 126.992188 112.484375 L 122.378906 112.484375 L 122.378906 126.765625 L 124.335938 126.765625 L 124.335938 120.097656 L 130.101562 126.765625 Z M 126.644531 114.324219 C 128.5 114.324219 129.378906 115.636719 129.378906 116.613281 C 129.378906 118.140625 128.359375 119.234375 126.605469 119.234375 L 124.335938 119.234375 L 124.335938 114.324219 L 126.644531 114.324219 M 142.160156 127 C 145.601562 127 148.691406 124.242188 148.691406 120.367188 L 142.121094 120.367188 L 142.121094 122.207031 L 146.421875 122.207031 C 145.917969 123.929688 144.277344 125.085938 142.222656 125.085938 C 139.328125 125.085938 136.964844 122.542969 136.964844 119.644531 C 136.964844 116.339844 139.269531 114.167969 142.144531 114.167969 C 143.804688 114.167969 145.019531 114.621094 146.246094 115.636719 L 147.441406 114.1875 C 146.070312 112.996094 144.488281 112.25 142.183594 112.25 C 138.25 112.25 134.929688 115.203125 134.929688 119.625 C 134.929688 124.046875 138.546875 127 142.160156 127 "/>
<path style=" stroke:none;fill-rule:nonzero;fill:rgb(89.019608%,10.588235%,11.372549%);fill-opacity:1;" d="M 71.5 16.542969 C 73.605469 16.542969 75.425781 15.347656 76.335938 13.511719 L 76.957031 13.511719 L 76.957031 61.113281 C 76.957031 64.125 74.511719 66.570312 71.5 66.570312 C 68.492188 66.570312 66.050781 64.125 66.050781 61.113281 L 66.050781 13.511719 L 66.671875 13.511719 C 67.582031 15.347656 69.402344 16.542969 71.5 16.542969 M 66.949219 5.554688 C 66.949219 8.074219 68.988281 10.121094 71.511719 10.121094 C 74.03125 10.121094 76.074219 8.074219 76.074219 5.554688 C 76.074219 3.03125 74.03125 0.996094 71.511719 0.996094 C 68.988281 0.996094 66.949219 3.03125 66.949219 5.554688 M 66.949219 5.554688 C 66.949219 8.074219 68.988281 10.121094 71.511719 10.121094 C 74.03125 10.121094 76.074219 8.074219 76.074219 5.554688 C 76.074219 3.03125 74.03125 0.996094 71.511719 0.996094 C 68.988281 0.996094 66.949219 3.03125 66.949219 5.554688 M 12.402344 66.574219 L 12.402344 18.964844 C 12.402344 15.949219 9.957031 13.511719 6.949219 13.511719 C 3.9375 13.511719 1.488281 15.949219 1.488281 18.964844 L 1.488281 61.113281 C 1.488281 64.132812 3.9375 66.574219 6.949219 66.574219 Z M 15.351562 66.574219 L 17.632812 66.574219 C 20.644531 66.574219 23.085938 63.667969 23.085938 60.65625 L 23.082031 60.65625 C 23.082031 63.578125 23.675781 66.574219 26.253906 66.574219 L 26.246094 66.574219 L 26.246094 18.964844 C 26.246094 15.949219 23.804688 13.511719 20.796875 13.511719 C 17.785156 13.511719 15.347656 15.949219 15.347656 18.964844 L 15.347656 66.574219 L 15.351562 66.574219 M 47.648438 13.507812 L 47.648438 61.117188 C 47.648438 64.132812 50.097656 66.574219 53.105469 66.574219 C 56.109375 66.574219 58.554688 64.132812 58.554688 61.117188 L 58.554688 18.96875 C 58.554688 15.949219 56.109375 13.507812 53.105469 13.507812 Z M 42.414062 13.507812 C 39.410156 13.507812 36.964844 16.414062 36.964844 19.429688 L 36.972656 19.429688 C 36.972656 16.507812 36.371094 13.511719 33.796875 13.507812 L 33.800781 13.507812 L 33.800781 61.117188 C 33.800781 64.132812 36.242188 66.574219 39.257812 66.574219 C 42.265625 66.574219 44.707031 64.132812 44.707031 61.117188 L 44.707031 13.507812 Z M 42.414062 13.507812 "/>
<path style=" stroke:none;fill-rule:nonzero;fill:rgb(0%,64.313728%,86.666667%);fill-opacity:1;" d="M 110.765625 3.027344 C 112.863281 3.027344 114.6875 1.835938 115.601562 0 L 116.207031 0 L 116.207031 61.113281 C 116.207031 64.125 113.769531 66.570312 110.761719 66.570312 C 107.726562 66.570312 105.292969 64.125 105.292969 61.113281 L 105.292969 0 L 105.910156 0 C 106.820312 1.835938 108.664062 3.027344 110.765625 3.027344 M 134.652344 66.574219 L 134.652344 18.964844 C 134.652344 15.949219 132.207031 13.507812 129.195312 13.507812 C 126.191406 13.507812 123.746094 15.949219 123.746094 18.964844 L 123.746094 61.113281 C 123.746094 64.128906 126.191406 66.574219 129.195312 66.574219 Z M 139.886719 66.574219 C 142.890625 66.574219 145.335938 63.667969 145.335938 60.652344 L 145.332031 60.652344 C 145.332031 63.574219 145.929688 66.570312 148.507812 66.574219 L 148.5 66.574219 L 148.5 18.964844 C 148.5 15.949219 146.058594 13.507812 143.046875 13.507812 C 140.039062 13.507812 137.597656 15.949219 137.597656 18.964844 L 137.597656 66.574219 Z M 85.695312 61.105469 C 85.695312 64.125 88.140625 66.574219 91.164062 66.574219 C 94.179688 66.574219 96.628906 64.125 96.628906 61.105469 C 96.628906 58.085938 94.179688 55.632812 91.164062 55.632812 C 88.140625 55.632812 85.695312 58.085938 85.695312 61.105469 "/>
</g>
</svg>
